<svg width="24" height="28" viewBox="0 0 24 28" fill="none" xmlns="http://www.w3.org/2000/svg">
<path d="M22.7285 21.6759C22.955 21.6759 23.1386 21.4922 23.1386 21.2657V4.00099C23.1386 3.77448 22.955 3.59084 22.7285 3.59084H21.3708V2.17793C21.3708 1.95141 21.1872 1.76777 20.9607 1.76777H19.6031V0.410156C19.6031 0.183641 19.4194 0 19.1929 0H0.410156C0.183641 0 0 0.183641 0 0.410156V23.999C0 24.2255 0.183641 24.4092 0.410156 24.4092H1.76777V25.7668C1.76777 25.9933 1.95141 26.1769 2.17793 26.1769H3.53555V27.5898C3.53555 27.8164 3.71919 28 3.9457 28H22.7284C22.9549 28 23.1386 27.8164 23.1386 27.5898V23.1797C23.1386 22.9532 22.9549 22.7695 22.7284 22.7695C22.5019 22.7695 22.3182 22.9532 22.3182 23.1797V27.1797H4.35591V26.177H20.9607C21.1872 26.177 21.3708 25.9934 21.3708 25.7668V18.7858C21.3708 18.5593 21.1872 18.3757 20.9607 18.3757C20.7342 18.3757 20.5505 18.5593 20.5505 18.7858V25.3566H2.58809V24.4092H19.1929C19.4194 24.4092 19.603 24.2255 19.603 23.999V15.3462C19.603 15.1197 19.4194 14.9361 19.1929 14.9361C18.9663 14.9361 18.7827 15.1197 18.7827 15.3462V23.5889H0.820312V0.820312H18.7827V13.4273C18.7827 13.6538 18.9663 13.8375 19.1929 13.8375C19.4194 13.8375 19.603 13.6538 19.603 13.4273V2.58809H20.5505V16.8704C20.5505 17.097 20.7341 17.2806 20.9606 17.2806C21.1871 17.2806 21.3708 17.097 21.3708 16.8704V4.41115H22.3182V21.2658C22.3183 21.4922 22.5019 21.6759 22.7285 21.6759Z" fill="#292929"/>
<path d="M8.44392 10.133V2.5094C8.44392 2.28288 8.26028 2.09924 8.03377 2.09924H2.5094C2.28288 2.09924 2.09924 2.28288 2.09924 2.5094V10.1329C2.09924 10.3595 2.28288 10.5431 2.5094 10.5431H8.03377C8.26028 10.5432 8.44392 10.3595 8.44392 10.133ZM7.62361 9.72284H2.91956V2.91956H7.62355V9.72284H7.62361Z" fill="#292929"/>
<path d="M17.5038 2.5094C17.5038 2.28288 17.3201 2.09924 17.0936 2.09924H10.0225C9.79595 2.09924 9.6123 2.28288 9.6123 2.5094V4.3877C9.6123 4.61421 9.79595 4.79785 10.0225 4.79785H17.0936C17.3201 4.79785 17.5038 4.61421 17.5038 4.3877V2.5094ZM16.6835 3.97754H10.4326V2.91956H16.6835V3.97754Z" fill="#292929"/>
<path d="M17.0936 5.96631H10.0225C9.79595 5.96631 9.6123 6.14995 9.6123 6.37646C9.6123 6.60298 9.79595 6.78662 10.0225 6.78662H17.0936C17.3201 6.78662 17.5038 6.60298 17.5038 6.37646C17.5038 6.14995 17.3201 5.96631 17.0936 5.96631Z" fill="#292929"/>
<path d="M17.0936 7.73413H10.0225C9.79595 7.73413 9.6123 7.91777 9.6123 8.14429C9.6123 8.3708 9.79595 8.55444 10.0225 8.55444H17.0936C17.3201 8.55444 17.5038 8.3708 17.5038 8.14429C17.5038 7.91777 17.3201 7.73413 17.0936 7.73413Z" fill="#292929"/>
<path d="M17.0936 9.7229H10.0225C9.79595 9.7229 9.6123 9.90654 9.6123 10.1331C9.6123 10.3596 9.79595 10.5432 10.0225 10.5432H17.0936C17.3201 10.5432 17.5038 10.3596 17.5038 10.1331C17.5038 9.90654 17.3201 9.7229 17.0936 9.7229Z" fill="#292929"/>
<path d="M17.0936 11.7115H6.70782C6.48131 11.7115 6.29767 11.8952 6.29767 12.1217C6.29767 12.3482 6.48131 12.5319 6.70782 12.5319H17.0936C17.3201 12.5319 17.5037 12.3482 17.5037 12.1217C17.5037 11.8952 17.3201 11.7115 17.0936 11.7115Z" fill="#292929"/>
<path d="M4.71915 11.7115H2.5094C2.28288 11.7115 2.09924 11.8952 2.09924 12.1217C2.09924 12.3482 2.28288 12.5319 2.5094 12.5319H4.7191C4.94561 12.5319 5.12926 12.3482 5.12926 12.1217C5.12926 11.8952 4.94567 11.7115 4.71915 11.7115Z" fill="#292929"/>
<path d="M17.0936 13.7003H6.70782C6.48131 13.7003 6.29767 13.884 6.29767 14.1105C6.29767 14.337 6.48131 14.5206 6.70782 14.5206H17.0936C17.3201 14.5206 17.5037 14.337 17.5037 14.1105C17.5037 13.884 17.3201 13.7003 17.0936 13.7003Z" fill="#292929"/>
<path d="M4.71915 13.7003H2.5094C2.28288 13.7003 2.09924 13.884 2.09924 14.1105C2.09924 14.337 2.28288 14.5206 2.5094 14.5206H4.7191C4.94561 14.5206 5.12926 14.337 5.12926 14.1105C5.12926 13.884 4.94567 13.7003 4.71915 13.7003Z" fill="#292929"/>
<path d="M17.0936 15.6891H6.70782C6.48131 15.6891 6.29767 15.8727 6.29767 16.0992C6.29767 16.3258 6.48131 16.5094 6.70782 16.5094H17.0936C17.3201 16.5094 17.5037 16.3258 17.5037 16.0992C17.5037 15.8727 17.3201 15.6891 17.0936 15.6891Z" fill="#292929"/>
<path d="M4.71915 15.6891H2.5094C2.28288 15.6891 2.09924 15.8727 2.09924 16.0992C2.09924 16.3258 2.28288 16.5094 2.5094 16.5094H4.7191C4.94561 16.5094 5.12926 16.3258 5.12926 16.0992C5.12926 15.8727 4.94567 15.6891 4.71915 15.6891Z" fill="#292929"/>
<path d="M17.0936 17.6779H6.70782C6.48131 17.6779 6.29767 17.8615 6.29767 18.088C6.29767 18.3145 6.48131 18.4982 6.70782 18.4982H17.0936C17.3201 18.4982 17.5037 18.3145 17.5037 18.088C17.5037 17.8615 17.3201 17.6779 17.0936 17.6779Z" fill="#292929"/>
<path d="M4.71915 17.6779H2.5094C2.28288 17.6779 2.09924 17.8615 2.09924 18.088C2.09924 18.3145 2.28288 18.4982 2.5094 18.4982H4.7191C4.94561 18.4982 5.12926 18.3145 5.12926 18.088C5.12926 17.8615 4.94567 17.6779 4.71915 17.6779Z" fill="#292929"/>
<path d="M17.0936 19.6666H6.70782C6.48131 19.6666 6.29767 19.8503 6.29767 20.0768C6.29767 20.3033 6.48131 20.4869 6.70782 20.4869H17.0936C17.3201 20.4869 17.5037 20.3033 17.5037 20.0768C17.5037 19.8503 17.3201 19.6666 17.0936 19.6666Z" fill="#292929"/>
<path d="M4.71915 19.6666H2.5094C2.28288 19.6666 2.09924 19.8503 2.09924 20.0768C2.09924 20.3033 2.28288 20.4869 2.5094 20.4869H4.7191C4.94561 20.4869 5.12926 20.3033 5.12926 20.0768C5.12926 19.8503 4.94567 19.6666 4.71915 19.6666Z" fill="#292929"/>
</svg>
