<svg width="32" height="28" viewBox="0 0 32 28" fill="none" xmlns="http://www.w3.org/2000/svg">
<path d="M31.4667 3.02839C31.3252 3.02839 31.1896 3.0922 31.0895 3.20579C30.9895 3.31937 30.9333 3.47343 30.9333 3.63407V25.4385H28.0373C24.6052 25.4388 21.1842 25.8814 17.84 26.7576C17.6302 26.8121 17.4108 26.793 17.2108 26.7028C17.0108 26.6126 16.8397 26.4556 16.72 26.2525C18.6242 24.9288 20.8133 24.2279 23.0459 24.2271H29.3333C29.4748 24.2271 29.6104 24.1633 29.7105 24.0497C29.8105 23.9361 29.8667 23.7821 29.8667 23.6214V19.3817C29.8667 19.221 29.8105 19.067 29.7105 18.9534C29.6104 18.8398 29.4748 18.776 29.3333 18.776C29.1919 18.776 29.0562 18.8398 28.9562 18.9534C28.8562 19.067 28.8 19.221 28.8 19.3817V23.0157H23.0459C20.7634 23.0133 18.5194 23.6836 16.5333 24.9612V8.47949C16.5333 8.31885 16.4771 8.16479 16.3771 8.05121C16.2771 7.93762 16.1414 7.87381 16 7.87381C15.8586 7.87381 15.7229 7.93762 15.6229 8.05121C15.5229 8.16479 15.4667 8.31885 15.4667 8.47949V24.9606C13.4806 23.6831 11.2366 23.013 8.95413 23.0157H3.2V1.21136H11.4133C12.4886 1.21216 13.5196 1.6978 14.2796 2.56154C15.0397 3.42528 15.4667 4.59642 15.4667 5.81753C15.4667 5.97817 15.5229 6.13223 15.6229 6.24581C15.7229 6.3594 15.8586 6.42321 16 6.42321C16.1414 6.42321 16.2771 6.3594 16.3771 6.24581C16.4771 6.13223 16.5333 5.97817 16.5333 5.81753C16.5333 4.59642 16.9603 3.42528 17.7204 2.56154C18.4804 1.6978 19.5114 1.21216 20.5867 1.21136H28.8V16.959C28.8 17.1196 28.8562 17.2737 28.9562 17.3873C29.0562 17.5008 29.1919 17.5646 29.3333 17.5646C29.4748 17.5646 29.6104 17.5008 29.7105 17.3873C29.8105 17.2737 29.8667 17.1196 29.8667 16.959V0.605678C29.8667 0.445042 29.8105 0.290986 29.7105 0.177399C29.6104 0.0638124 29.4748 0 29.3333 0H20.5867C19.6334 0.000803931 18.6991 0.303442 17.8889 0.873922C17.0787 1.4444 16.4245 2.26013 16 3.22947C15.5755 2.26013 14.9213 1.4444 14.1111 0.873922C13.3009 0.303442 12.3666 0.000803931 11.4133 0H2.66667C2.52522 0 2.38956 0.0638124 2.28954 0.177399C2.18952 0.290986 2.13333 0.445042 2.13333 0.605678V23.6214C2.13333 23.7821 2.18952 23.9361 2.28954 24.0497C2.38956 24.1633 2.52522 24.2271 2.66667 24.2271H8.95413C11.1871 24.2277 13.3766 24.9286 15.2811 26.2525C15.161 26.4551 14.9898 26.6117 14.7899 26.7019C14.59 26.792 14.3708 26.8115 14.1611 26.7576C10.8165 25.8812 7.39513 25.4387 3.96267 25.4385H1.06667V3.63407C1.06667 3.47343 1.01048 3.31937 0.910457 3.20579C0.810438 3.0922 0.674782 3.02839 0.533333 3.02839C0.391885 3.02839 0.256229 3.0922 0.15621 3.20579C0.0561903 3.31937 0 3.47343 0 3.63407V26.0441C0 26.2048 0.0561903 26.3588 0.15621 26.4724C0.256229 26.586 0.391885 26.6498 0.533333 26.6498H3.96267C7.31399 26.6504 10.6544 27.0826 13.92 27.9381C14.2954 28.0365 14.6874 28.017 15.0538 27.8817C15.4202 27.7464 15.7473 27.5004 16 27.1701C16.2526 27.5005 16.5797 27.7466 16.9461 27.8819C17.3126 28.0172 17.7046 28.0367 18.08 27.9381C21.3456 27.0827 24.686 26.6506 28.0373 26.6498H31.4667C31.6081 26.6498 31.7438 26.586 31.8438 26.4724C31.9438 26.3588 32 26.2048 32 26.0441V3.63407C32 3.47343 31.9438 3.31937 31.8438 3.20579C31.7438 3.0922 31.6081 3.02839 31.4667 3.02839Z" fill="#EEEEEE"/>
<path d="M14.2523 5.2167C13.4119 4.57935 12.4239 4.23936 11.4134 4.23975H5.33338C5.19193 4.23975 5.05628 4.30356 4.95626 4.41714C4.85624 4.53073 4.80005 4.68479 4.80005 4.84542C4.80005 5.00606 4.85624 5.16012 4.95626 5.2737C5.05628 5.38729 5.19193 5.4511 5.33338 5.4511H11.4134C12.2142 5.45006 12.9972 5.71927 13.663 6.22455C13.7807 6.3137 13.9247 6.34611 14.0634 6.31465C14.2022 6.28319 14.3242 6.19043 14.4027 6.05678C14.4812 5.92313 14.5098 5.75954 14.4821 5.60199C14.4543 5.44445 14.3727 5.30586 14.255 5.2167H14.2523Z" fill="#EEEEEE"/>
<path d="M26.6668 4.23975H20.5868C19.5753 4.23884 18.5864 4.57884 17.7452 5.21671C17.6869 5.26085 17.6369 5.3176 17.5979 5.3837C17.559 5.44981 17.5319 5.52399 17.5181 5.602C17.5044 5.68 17.5044 5.76032 17.518 5.83835C17.5316 5.91638 17.5586 5.9906 17.5975 6.05678C17.6363 6.12296 17.6863 6.17979 17.7445 6.22404C17.8027 6.26828 17.8681 6.29907 17.9367 6.31465C18.0054 6.33023 18.0762 6.33029 18.1449 6.31483C18.2136 6.29937 18.2789 6.2687 18.3372 6.22455C19.0031 5.71944 19.786 5.45024 20.5868 5.4511H26.6668C26.8083 5.4511 26.9439 5.38729 27.0439 5.2737C27.144 5.16012 27.2001 5.00606 27.2001 4.84543C27.2001 4.68479 27.144 4.53073 27.0439 4.41715C26.9439 4.30356 26.8083 4.23975 26.6668 4.23975Z" fill="#EEEEEE"/>
<path d="M14.2523 8.24502C13.4119 7.60767 12.4239 7.26768 11.4134 7.26807H5.33338C5.19193 7.26807 5.05628 7.33188 4.95626 7.44546C4.85624 7.55905 4.80005 7.71311 4.80005 7.87374C4.80005 8.03438 4.85624 8.18844 4.95626 8.30202C5.05628 8.41561 5.19193 8.47942 5.33338 8.47942H11.4134C12.2142 8.47838 12.9972 8.74759 13.663 9.25287C13.7807 9.34202 13.9247 9.37443 14.0634 9.34297C14.2022 9.3115 14.3242 9.21875 14.4027 9.0851C14.4812 8.95145 14.5098 8.78786 14.4821 8.63031C14.4543 8.47277 14.3727 8.33418 14.255 8.24502H14.2523Z" fill="#EEEEEE"/>
<path d="M26.6668 7.26807H20.5868C19.5753 7.26716 18.5864 7.60716 17.7452 8.24503C17.6869 8.28917 17.6369 8.34592 17.5979 8.41202C17.559 8.47813 17.5319 8.55231 17.5181 8.63032C17.5044 8.70833 17.5044 8.78864 17.518 8.86667C17.5316 8.9447 17.5586 9.01892 17.5975 9.0851C17.6363 9.15128 17.6863 9.20811 17.7445 9.25236C17.8027 9.2966 17.8681 9.32739 17.9367 9.34297C18.0054 9.35855 18.0762 9.35861 18.1449 9.34315C18.2136 9.3277 18.2789 9.29702 18.3372 9.25287C19.0031 8.74776 19.786 8.47856 20.5868 8.47942H26.6668C26.8083 8.47942 26.9439 8.41561 27.0439 8.30202C27.144 8.18844 27.2001 8.03438 27.2001 7.87375C27.2001 7.71311 27.144 7.55905 27.0439 7.44547C26.9439 7.33188 26.8083 7.26807 26.6668 7.26807Z" fill="#EEEEEE"/>
<path d="M14.2523 11.2735C13.4119 10.6361 12.4239 10.2961 11.4134 10.2965H5.33338C5.19193 10.2965 5.05628 10.3603 4.95626 10.4739C4.85624 10.5875 4.80005 10.7416 4.80005 10.9022C4.80005 11.0628 4.85624 11.2169 4.95626 11.3305C5.05628 11.4441 5.19193 11.5079 5.33338 11.5079H11.4134C12.2142 11.5068 12.9972 11.776 13.663 12.2813C13.7807 12.3705 13.9247 12.4029 14.0634 12.3714C14.2022 12.3399 14.3242 12.2472 14.4027 12.1135C14.4812 11.9799 14.5098 11.8163 14.4821 11.6588C14.4543 11.5012 14.3727 11.3626 14.255 11.2735H14.2523Z" fill="#EEEEEE"/>
<path d="M26.6668 10.2965H20.5868C19.5753 10.2956 18.5864 10.6356 17.7452 11.2735C17.6869 11.3176 17.6369 11.3744 17.5979 11.4405C17.559 11.5066 17.5319 11.5808 17.5181 11.6588C17.5044 11.7368 17.5044 11.8171 17.518 11.8951C17.5316 11.9731 17.5586 12.0474 17.5975 12.1135C17.6363 12.1797 17.6863 12.2366 17.7445 12.2808C17.8027 12.325 17.8681 12.3558 17.9367 12.3714C18.0054 12.387 18.0762 12.3871 18.1449 12.3716C18.2136 12.3561 18.2789 12.3255 18.3372 12.2813C19.0031 11.7762 19.786 11.507 20.5868 11.5079H26.6668C26.8083 11.5079 26.9439 11.4441 27.0439 11.3305C27.144 11.2169 27.2001 11.0628 27.2001 10.9022C27.2001 10.7416 27.144 10.5875 27.0439 10.4739C26.9439 10.3603 26.8083 10.2965 26.6668 10.2965Z" fill="#EEEEEE"/>
<path d="M14.2523 14.3019C13.4119 13.6646 12.4239 13.3246 11.4134 13.325H5.33338C5.19193 13.325 5.05628 13.3888 4.95626 13.5023C4.85624 13.6159 4.80005 13.77 4.80005 13.9306C4.80005 14.0913 4.85624 14.2453 4.95626 14.3589C5.05628 14.4725 5.19193 14.5363 5.33338 14.5363H11.4134C12.2142 14.5353 12.9972 14.8045 13.663 15.3098C13.7213 15.3539 13.7866 15.3846 13.8553 15.4C13.924 15.4155 13.9948 15.4154 14.0634 15.3999C14.1321 15.3843 14.1975 15.3535 14.2557 15.3092C14.3139 15.265 14.3638 15.2082 14.4027 15.142C14.4416 15.0758 14.4686 15.0016 14.4822 14.9236C14.4958 14.8455 14.4958 14.7652 14.4821 14.6872C14.4683 14.6092 14.4412 14.535 14.4023 14.4689C14.3633 14.4028 14.3133 14.3461 14.255 14.3019H14.2523Z" fill="#EEEEEE"/>
<path d="M26.6668 13.325H20.5868C19.5753 13.324 18.5864 13.664 17.7452 14.3019C17.6275 14.3911 17.5458 14.5297 17.5181 14.6872C17.4904 14.8447 17.519 15.0083 17.5975 15.142C17.676 15.2756 17.798 15.3684 17.9367 15.3999C18.0755 15.4313 18.2195 15.3989 18.3372 15.3098C19.0031 14.8046 19.786 14.5354 20.5868 14.5363H26.6668C26.8083 14.5363 26.9439 14.4725 27.0439 14.3589C27.144 14.2453 27.2001 14.0913 27.2001 13.9306C27.2001 13.77 27.144 13.6159 27.0439 13.5024C26.9439 13.3888 26.8083 13.325 26.6668 13.325Z" fill="#EEEEEE"/>
<path d="M14.2523 17.3302C13.4119 16.6929 12.4239 16.3529 11.4134 16.3533H5.33338C5.19193 16.3533 5.05628 16.4171 4.95626 16.5307C4.85624 16.6443 4.80005 16.7983 4.80005 16.9589C4.80005 17.1196 4.85624 17.2736 4.95626 17.3872C5.05628 17.5008 5.19193 17.5646 5.33338 17.5646H11.4134C12.2142 17.5636 12.9972 17.8328 13.663 18.3381C13.7807 18.4272 13.9247 18.4596 14.0634 18.4282C14.2022 18.3967 14.3242 18.304 14.4027 18.1703C14.4812 18.0367 14.5098 17.8731 14.4821 17.7155C14.4543 17.558 14.3727 17.4194 14.255 17.3302H14.2523Z" fill="#EEEEEE"/>
<path d="M26.6668 16.3533H20.5868C19.5753 16.3524 18.5864 16.6924 17.7452 17.3302C17.6869 17.3744 17.6369 17.4311 17.5979 17.4972C17.559 17.5633 17.5319 17.6375 17.5181 17.7155C17.5044 17.7935 17.5044 17.8738 17.518 17.9519C17.5316 18.0299 17.5586 18.1041 17.5975 18.1703C17.676 18.304 17.798 18.3967 17.9367 18.4282C18.0054 18.4438 18.0762 18.4438 18.1449 18.4284C18.2136 18.4129 18.2789 18.3822 18.3372 18.3381C19.0031 17.833 19.786 17.5638 20.5868 17.5646H26.6668C26.8083 17.5646 26.9439 17.5008 27.0439 17.3872C27.144 17.2736 27.2001 17.1196 27.2001 16.959C27.2001 16.7983 27.144 16.6443 27.0439 16.5307C26.9439 16.4171 26.8083 16.3533 26.6668 16.3533Z" fill="#EEEEEE"/>
<path d="M11.4134 19.3817H5.33338C5.19193 19.3817 5.05628 19.4455 4.95626 19.5591C4.85624 19.6727 4.80005 19.8268 4.80005 19.9874C4.80005 20.148 4.85624 20.3021 4.95626 20.4157C5.05628 20.5293 5.19193 20.5931 5.33338 20.5931H11.4134C12.2142 20.592 12.9972 20.8612 13.663 21.3665C13.7213 21.4107 13.7866 21.4413 13.8553 21.4568C13.924 21.4723 13.9948 21.4722 14.0634 21.4566C14.1321 21.441 14.1975 21.4102 14.2557 21.366C14.3139 21.3218 14.3638 21.2649 14.4027 21.1987C14.4416 21.1326 14.4686 21.0583 14.4822 20.9803C14.4958 20.9023 14.4958 20.822 14.4821 20.744C14.4683 20.666 14.4412 20.5918 14.4023 20.5257C14.3633 20.4596 14.3133 20.4028 14.255 20.3587C13.4138 19.7207 12.4249 19.3807 11.4134 19.3817Z" fill="#EEEEEE"/>
<path d="M26.6668 19.3817H20.5868C19.5753 19.3808 18.5864 19.7208 17.7452 20.3587C17.6869 20.4028 17.6369 20.4596 17.5979 20.5257C17.559 20.5918 17.5319 20.666 17.5181 20.744C17.5044 20.822 17.5044 20.9023 17.518 20.9803C17.5316 21.0584 17.5586 21.1326 17.5975 21.1988C17.6363 21.2649 17.6863 21.3218 17.7445 21.366C17.8027 21.4103 17.8681 21.441 17.9367 21.4566C18.0054 21.4722 18.0762 21.4723 18.1449 21.4568C18.2136 21.4413 18.2789 21.4107 18.3372 21.3665C19.0031 20.8614 19.786 20.5922 20.5868 20.5931H26.6668C26.8083 20.5931 26.9439 20.5293 27.0439 20.4157C27.144 20.3021 27.2001 20.148 27.2001 19.9874C27.2001 19.8268 27.144 19.6727 27.0439 19.5591C26.9439 19.4455 26.8083 19.3817 26.6668 19.3817Z" fill="#EEEEEE"/>
</svg>
